<svg xmlns="http://www.w3.org/2000/svg" viewBox="0 0 24 24">
  <g fill="none" stroke="#f2b705" stroke-width="1.4" stroke-linecap="round" stroke-linejoin="round">
    <ellipse cx="12" cy="13.2" rx="4.2" ry="5.2" fill="#f2b705" stroke="none"/>
    <path d="M8 10.5h8M8 13h8M8 15.5h8" stroke="#1a1a1a" stroke-width="1.3"/>
    <circle cx="12" cy="6.3" r="2.1" fill="#1a1a1a" stroke="none"/>
    <path d="M9 5.2c-1-1.4-2.6-1.6-3.5-.6M15 5.2c1-1.4 2.6-1.6 3.5-.6" stroke="#1a1a1a"/>
    <path d="M7 9c-2.6-1-4.6.4-5 2.4 2 .7 3.8-.1 5-1.4M17 9c2.6-1 4.6.4 5 2.4-2 .7-3.8-.1-5-1.4" fill="#e8e8e8" stroke="#c9c9c9" stroke-width="0.8"/>
  </g>
</svg>
