<svg xmlns="http://www.w3.org/2000/svg" viewBox="0 0 24 24" fill="#ffffff">
  <path d="M12 2a10 10 0 1 0 0 20 10 10 0 0 0 0-20zm6.9 4.6a8.4 8.4 0 0 1 1.8 5c-.3-.1-2.7-.6-5.2-.2-.1-.3-.2-.5-.3-.8a19 19 0 0 0-.8-1.7c2.7-1.1 4-2.7 4.5-2.3zm-1.1-1a7 7 0 0 0-4-1.8c-.2.7-1 2.1-2.3 3.5a19 19 0 0 0-3.6-1.9A8.5 8.5 0 0 1 12 3.6c2.2 0 4.2.9 5.7 2.3-.2 0-.5-.1-.9-.3zM6.6 5.4a19 19 0 0 0 3.5 1.9c-1.7 2.3-3.9 3.5-4.7 3.9a8.4 8.4 0 0 1 1.2-5.8zm-1.7 7.3v-.4c1 .5 3.7 1.8 6.5 1a15 15 0 0 0 .5 1.5c-3.9 1.3-5.6 4.1-5.7 4.3a8.4 8.4 0 0 1-1.3-6.4zm5.7 6.7c.1-.2 1.4-2.9 5.1-4.1.6 1.7 1 3.5 1.2 5-.9.4-1.9.6-2.9.6a8.4 8.4 0 0 1-3.4-1.5zm7.6-1.5c-.1-.9-.4-2.6-1.1-4.5 1.9-.3 3.6.2 3.8.3a8.5 8.5 0 0 1-2.7 4.2z"/>
</svg>
