<svg version="1.1" id="Layer_1" xmlns="http://www.w3.org/2000/svg" xmlns:xlink="http://www.w3.org/1999/xlink" x="0px" y="0px"
	 width="100%" viewBox="0 0 352 352" enable-background="new 0 0 352 352" xml:space="preserve">
<path fill="#000000" opacity="1.000000" stroke="none" 
	d="
M138.957779,169.073196 
	C129.264404,173.144409 127.277145,182.192780 124.543465,190.361984 
	C122.648384,196.025131 119.935631,200.506927 114.869385,203.625763 
	C110.422188,206.363510 107.002701,210.604385 101.561905,213.203903 
	C101.808945,209.647018 104.203690,207.972046 105.207085,205.639175 
	C106.842766,201.836258 109.173454,198.350555 108.672798,193.857880 
	C108.296127,190.477783 111.383598,189.096573 113.376610,187.253372 
	C115.598824,185.198227 117.864059,183.274872 118.825111,180.274628 
	C119.233932,178.998352 119.838448,177.629776 118.329941,176.699982 
	C116.750328,175.726379 115.458694,176.390030 114.458694,177.752136 
	C111.504944,181.775452 108.569160,185.811935 105.625427,189.842621 
	C104.641502,191.189865 103.660103,192.533905 102.052925,193.231918 
	C83.993233,201.075500 67.481575,211.055023 55.329830,227.064163 
	C54.941826,227.575317 54.366184,227.970840 53.812962,228.315994 
	C53.605747,228.445267 53.212704,228.276688 52.884949,228.241837 
	C52.028221,226.897369 53.119991,226.031235 53.741489,225.158981 
	C60.987988,214.988434 68.419235,204.945419 75.469948,194.641724 
	C77.872536,191.130661 80.068047,189.149918 84.114990,192.186096 
	C86.760429,189.266006 85.569473,185.203186 87.711411,182.375443 
	C91.004776,182.626175 92.133247,185.841949 95.119347,187.385742 
	C104.298943,176.111816 113.983902,165.227722 118.508987,150.736298 
	C122.204918,152.026703 123.432709,155.939117 127.191315,157.666809 
	C132.503296,150.376862 134.795242,141.313934 140.079727,133.795059 
	C143.801315,134.715485 145.842560,138.066467 149.817612,139.402679 
	C157.491394,127.257439 164.532990,114.742142 170.343872,101.701805 
	C172.547516,101.178627 173.181396,102.807503 174.034180,103.925819 
	C179.082733,110.546471 184.428253,117.010124 187.531418,124.850876 
	C188.884995,128.270966 191.586548,127.940430 194.153275,127.750099 
	C198.423035,127.433487 200.320190,128.617340 200.599686,133.442581 
	C200.941986,139.351807 201.683823,145.373810 204.021896,150.992523 
	C204.524841,152.201157 204.608398,153.628372 206.575760,154.389175 
	C212.568436,150.420059 215.027084,143.558014 218.356506,138.028152 
	C230.766846,145.137573 230.203934,160.168213 237.755676,170.463058 
	C243.054214,168.014709 244.090469,162.607529 248.096664,159.220474 
	C257.184509,168.388748 264.611542,178.692566 271.477295,189.186310 
	C274.265442,188.822693 274.598053,185.686569 277.716309,185.422913 
	C286.898773,202.666092 295.140228,220.747940 305.958374,237.620804 
	C298.283722,231.633133 287.944092,229.479950 283.167297,219.682205 
	C278.225372,209.545715 269.869293,206.386948 259.025818,209.789444 
	C258.263184,210.028748 257.450745,210.109344 256.397797,210.315323 
	C252.504822,200.491592 250.051300,190.264664 245.281982,180.636368 
	C241.338074,182.084305 239.745026,186.203156 235.555466,187.930786 
	C229.533157,179.975723 221.978897,172.922272 222.978653,161.228424 
	C214.654755,165.018463 212.942444,170.466736 217.437515,176.401764 
	C223.548340,184.470123 228.913605,193.069305 236.524719,200.035675 
	C242.702133,205.689774 245.214752,213.491058 246.193649,221.635590 
	C244.802582,222.335083 244.242508,221.699997 243.800583,220.994766 
	C238.819626,213.045944 232.553375,206.129120 226.277451,199.228195 
	C223.342148,196.000580 220.983963,192.494995 219.085098,188.520889 
	C215.907379,181.870331 212.427963,175.256012 203.857269,174.203415 
	C202.297440,174.011856 201.782593,172.665527 201.157089,171.503479 
	C198.718063,166.972519 196.162827,162.543564 194.426163,157.618713 
	C190.929749,147.703583 183.999924,141.038589 173.716873,138.437912 
	C169.699539,137.421890 170.678925,133.132797 167.652298,131.081802 
	C162.904724,135.692734 158.407898,140.472351 157.258118,147.297058 
	C158.931671,148.857483 160.184830,147.908508 161.389481,147.567459 
	C167.923599,145.717545 170.733963,146.299149 174.137451,151.985931 
	C178.803864,159.782822 180.539261,168.552917 181.339783,178.239731 
	C176.907318,176.038071 175.450577,172.178741 173.197235,169.128220 
	C171.069382,166.247604 168.974350,164.501724 165.314499,166.485474 
	C163.244537,167.607468 161.016617,167.455399 159.170074,166.023010 
	C155.852936,163.449905 153.508301,164.597443 151.195023,167.507019 
	C149.480743,169.663177 147.424301,171.547287 145.424637,173.653305 
	C143.495667,171.380219 146.111237,168.695969 143.966568,166.779785 
	C141.952133,166.282074 140.765060,167.973663 138.957779,169.073196 
z"/>
<path fill="#000000" opacity="1.000000" stroke="none" 
	d="
M206.974655,221.936874 
	C204.131622,221.339050 202.568024,219.941757 201.602280,217.520706 
	C200.310364,214.281952 198.863541,211.075577 197.154739,208.040237 
	C195.160751,204.498260 192.443512,201.565155 188.367188,200.309235 
	C186.048370,199.594803 184.141647,198.420883 183.399231,195.232117 
	C180.428589,197.959747 178.362381,200.320038 177.364624,203.680557 
	C188.749207,203.523865 190.579269,213.638031 190.545242,222.883804 
	C177.929138,214.432236 176.520981,214.240326 170.153793,220.117386 
	C168.141052,220.131485 169.253036,217.849899 168.103012,217.224396 
	C160.679474,218.941330 158.600616,225.199295 156.915939,231.187454 
	C154.894775,238.371552 148.430817,240.205933 143.555740,244.121765 
	C146.484360,236.968933 147.699448,229.201889 153.751724,223.890656 
	C151.919495,222.502182 151.172424,223.017273 150.788498,223.748505 
	C146.337860,232.225357 138.097336,235.628555 130.118454,239.497330 
	C125.396690,241.786835 122.026459,245.826050 118.491692,249.596390 
	C117.337402,250.827621 116.743874,252.856415 114.465668,252.821014 
	C116.435844,245.365311 128.576187,231.004578 132.644470,231.507263 
	C133.183456,229.845673 133.734802,228.145966 134.193481,226.731934 
	C136.575668,225.393982 137.366150,227.803497 139.436295,228.161392 
	C145.051163,222.146393 149.760193,215.222656 153.214005,207.560715 
	C155.492783,207.547943 156.154984,209.939377 158.366791,210.321243 
	C162.189041,206.705963 162.701477,200.898483 166.093033,196.976822 
	C168.535706,196.645187 169.506699,199.234497 172.216934,199.313873 
	C176.924362,192.617325 180.391846,184.762558 184.711273,176.979843 
	C189.298981,180.567184 191.730453,185.084320 194.255081,189.501404 
	C195.270798,191.278519 196.064407,193.141586 198.595856,192.895447 
	C202.241440,192.540955 203.155624,194.765442 203.291595,197.803085 
	C203.454147,201.434555 203.741364,205.047104 206.070923,208.461014 
	C210.193222,206.464005 210.931686,202.128265 213.729431,198.715454 
	C216.559753,202.491547 220.834991,204.990601 221.415817,210.288422 
	C221.572876,211.720963 222.521561,213.050598 222.973083,214.470047 
	C224.211777,218.364105 225.972687,218.544098 228.357239,215.348297 
	C229.130768,214.311630 230.009720,213.353622 230.779907,212.432098 
	C238.701874,215.778137 239.370438,227.118195 250.006683,229.098557 
	C254.796616,238.081940 259.757690,248.589752 265.744781,258.828278 
	C260.944092,256.519012 255.850891,254.488266 253.029083,249.735733 
	C249.670883,244.079865 245.424820,240.987961 238.691788,242.518677 
	C235.821533,243.171173 235.334641,241.169388 234.700211,239.235397 
	C233.254715,234.829010 232.052002,230.324692 229.657227,226.311600 
	C227.014145,226.251923 225.432785,230.472305 223.011017,228.459305 
	C220.115753,226.052750 218.062302,222.651184 216.753922,219.012802 
	C216.268692,217.663467 216.732788,215.984726 215.142853,214.713425 
	C211.517685,216.351578 209.946045,218.659515 212.875595,222.239685 
	C216.663437,226.868759 219.626266,232.126282 224.098083,236.250687 
	C227.705322,239.577698 229.557343,243.930161 230.427750,249.102631 
	C229.301270,249.018967 228.600128,249.158173 228.443512,248.927567 
	C223.220261,241.236694 215.730362,235.236008 211.787689,226.590698 
	C210.860931,224.558609 209.362442,223.032852 206.974655,221.936874 
z"/>
</svg>